<svg viewBox="0 0 512 512" height="512" width="512" xmlns="http://www.w3.org/2000/svg" version="1.1"><g transform-origin="center" transform="scale(1, 1) rotate(0)"><rect x="0" y="0" width="512" height="512" fill="#ffffff"></rect><linearGradient id="linear-gradient-r2"><stop offset="0%" stop-color="#a400ffff" stop-opacity="100%"></stop><stop offset="100%" stop-color="#a400ffff" stop-opacity="100%"></stop></linearGradient><filter id="shadow-r2" y="-20%" height="150%" x="-20%" width="150%"><feDropShadow dx="-50" dy="-10" stdDeviation="0" flood-color="#00000000"></feDropShadow></filter><linearGradient id="ghost-linear-gradient-r2"><stop offset="0%" stop-color="#dededeff" stop-opacity="100%"></stop><stop offset="100%" stop-color="#bdbdbd" stop-opacity="100%"></stop></linearGradient><path d="M -58 455 l29.449852710846685 -182.23894152883443 l22.095371368341148 111.61074850102887 l37.12549985845669 -136.16061390703544 l30.188927143009316 160.19785880437124 l34.294252163313075 -153.1571167903021 l22.835511505282646 116.05394645687193 l28.017539941866335 -190.8373796483502 l33.77602547105273 181.73187265265736 l31.903743780378637 -167.50778017193082 l29.56038953896997 156.42463146802038 l30.106854039822416 -178.29484119405973 l25.388425918071178 131.3795632342808 l39.48236483203825 -122.01191812613979 l35.38540830633378 191.39329508738595 l29.222036182559258 -183.60656622890386 l32.754585396594784 175.59997921204197 l33.96888730511198 -155.1103421333246 l20.98899835508702 104.96898694057018 l41.53336269716765 -109.69939909502864 l32.00838910129949 171.1204250189476 l36.43254666117116 -140.32053994806483 l22.449170002071508 113.7346670506522 l34.67110088933259 -150.89482427900657 l39.25644645583013 214.63185213133696 l33.84459159330561 -155.85651225037873 l42.47866775856578 233.97544179903346 l38.93521330489552 -125.29656980978325 l21.633061298169196 108.83541575493291 l22.128499834445016 -226.19037519767883" fill="none" stroke-linecap="square" stroke-linejoin="round" stroke="url(#ghost-linear-gradient-r2)" stroke-width="21" style="transform-origin: center center; transform: scale(1.1, 1.1); transition: all 0.4s cubic-bezier(0.16, 1, 0.3, 1) 0s;"></path><path d="M -58 455 l29.449852710846685 -182.23894152883443 l22.095371368341148 111.61074850102887 l37.12549985845669 -136.16061390703544 l30.188927143009316 160.19785880437124 l34.294252163313075 -153.1571167903021 l22.835511505282646 116.05394645687193 l28.017539941866335 -190.8373796483502 l33.77602547105273 181.73187265265736 l31.903743780378637 -167.50778017193082 l29.56038953896997 156.42463146802038 l30.106854039822416 -178.29484119405973 l25.388425918071178 131.3795632342808 l39.48236483203825 -122.01191812613979 l35.38540830633378 191.39329508738595 l29.222036182559258 -183.60656622890386 l32.754585396594784 175.59997921204197 l33.96888730511198 -155.1103421333246 l20.98899835508702 104.96898694057018 l41.53336269716765 -109.69939909502864 l32.00838910129949 171.1204250189476 l36.43254666117116 -140.32053994806483 l22.449170002071508 113.7346670506522 l34.67110088933259 -150.89482427900657 l39.25644645583013 214.63185213133696 l33.84459159330561 -155.85651225037873 l42.47866775856578 233.97544179903346 l38.93521330489552 -125.29656980978325 l21.633061298169196 108.83541575493291 l22.128499834445016 -226.19037519767883" fill="none" stroke-linecap="square" stroke-linejoin="round" filter="url(#shadow-r2)" stroke="url(#linear-gradient-r2)" stroke-width="21" style="transform-origin: center center; transition: all 0.4s cubic-bezier(0.16, 1, 0.3, 1) 0s;"></path></g></svg>